<?xml version="1.0" encoding="utf-8"?>
<!-- Generator: Adobe Illustrator 18.0.0, SVG Export Plug-In . SVG Version: 6.00 Build 0)  -->
<!DOCTYPE svg PUBLIC "-//W3C//DTD SVG 1.1//EN" "http://www.w3.org/Graphics/SVG/1.1/DTD/svg11.dtd">
<svg version="1.1" xmlns="http://www.w3.org/2000/svg" xmlns:xlink="http://www.w3.org/1999/xlink" x="0px" y="0px"
	 viewBox="0 0 1600 900" enable-background="new 0 0 1600 900" xml:space="preserve">
<g id="Background">
	<rect x="800" y="0" fill="#EEEEEE" width="800" height="900"/>
	<rect x="0" y="0" fill="#4CAF50" width="800" height="900"/>
</g>
<g id="Artwork">
	<g>
		
			<line fill="none" stroke="#FFFFFF" stroke-width="15" stroke-linecap="round" stroke-linejoin="round" stroke-miterlimit="10" x1="495.4" y1="450.3" x2="650.9" y2="450.2"/>
	</g>
	
		<line fill="none" stroke="#4CAF50" stroke-width="15" stroke-linecap="round" stroke-linejoin="round" stroke-miterlimit="10" x1="1302.8" y1="450.3" x2="796.1" y2="450.3"/>
	<path fill="#FFFFFF" d="M476.6,447.3l23.9-21.3c2.3-2,5.9-0.4,5.9,2.7l0,42.7c0,3.1-3.6,4.7-5.9,2.7l-23.9-21.4
		C475.1,451.2,475.1,448.7,476.6,447.3z"/>
	<path fill="#9E9E9E" d="M1444.9,383.9h-309.6v-91.9c0-9.8,8-17.8,17.8-17.8h273.9c9.8,0,17.8,8,17.8,17.8V383.9z"/>
	<rect x="1135.3" y="395.4" fill="#9E9E9E" width="309.6" height="109.7"/>
	<path fill="#9E9E9E" d="M1427.1,626.3h-273.9c-9.8,0-17.8-8-17.8-17.8v-91.9h309.6v91.9C1444.9,618.3,1436.9,626.3,1427.1,626.3z"
		/>
	<circle fill="#FFFFFF" cx="1173.2" cy="329.1" r="11.6"/>
	<path fill="#616262" d="M1380.3,334.7h-163.7c-3.1,0-5.6-2.5-5.6-5.6l0,0c0-3.1,2.5-5.6,5.6-5.6h163.7c3.1,0,5.6,2.5,5.6,5.6l0,0
		C1385.9,332.2,1383.4,334.7,1380.3,334.7z"/>
	<circle fill="#FFFFFF" cx="1173.2" cy="450.3" r="11.6"/>
	<path fill="#616262" d="M1380.3,455.9h-163.7c-3.1,0-5.6-2.5-5.6-5.6l0,0c0-3.1,2.5-5.6,5.6-5.6h163.7c3.1,0,5.6,2.5,5.6,5.6l0,0
		C1385.9,453.4,1383.4,455.9,1380.3,455.9z"/>
	<circle fill="#FFFFFF" cx="1173.2" cy="571.4" r="11.6"/>
	<path fill="#616262" d="M1380.3,577h-163.7c-3.1,0-5.6-2.5-5.6-5.6l0,0c0-3.1,2.5-5.6,5.6-5.6h163.7c3.1,0,5.6,2.5,5.6,5.6l0,0
		C1385.9,574.5,1383.4,577,1380.3,577z"/>
	<g>
		<g>
			<g>
				<path fill="#388E3C" d="M434,193.6c-11.6-5-68.9-6-122.1-6s-110.5,1-122.1,6c-12.1,5.2-26.1,15.8-26.1,35v485
					c0,19.2,14,29,26.1,34.3c11.6,5,68.9,5.8,122.1,5.8s110.5-0.7,122.1-5.8c12.1-5.2,25.3-15,25.3-34.3v-485
					C459.3,209.4,446.1,198.8,434,193.6z"/>
			</g>
		</g>
		<g>
			<g>
				<path fill="#616262" d="M413.6,173.2c-11.6-5-68.9-6-122.1-6s-110.5,1-122.1,6c-12.1,5.2-26.1,15.8-26.1,35v485
					c0,19.2,14,29,26.1,34.3c11.6,5,68.9,5.8,122.1,5.8s110.5-0.7,122.1-5.8c12.1-5.2,25.3-15,25.3-34.3v-485
					C438.9,189,425.7,178.4,413.6,173.2z M425.5,692.3H157.4V215.7h268.1V692.3z"/>
			</g>
		</g>
		<g>
			<circle fill="#424242" cx="379.3" cy="185.2" r="5.3"/>
		</g>
		<g>
			<path fill="#424242" d="M324.6,190.5h-66.4c-2.7,0-5-2.5-5-5.3s2.3-5.3,5-5.3h66.4c2.7,0,5,2.5,5,5.3S327.3,190.5,324.6,190.5z"
				/>
		</g>
		<g>
			<path fill="#424242" d="M236.8,190.5h-11.8c-2.5,0-4.4-2.5-4.4-5.3s2-5.3,4.4-5.3h11.8c2.5,0,4.4,2.5,4.4,5.3
				S239.3,190.5,236.8,190.5z"/>
		</g>
		<rect x="157.4" y="215.6" fill="#FAFAFA" width="268.1" height="479.9"/>
		<g>
			<path fill="#424242" d="M324.6,721.4h-66.4c-2.7,0-5-2.5-5-5.3c0-2.9,2.3-5.3,5-5.3h66.4c2.7,0,5,2.5,5,5.3
				C329.6,719,327.3,721.4,324.6,721.4z"/>
		</g>
	</g>
	<rect x="171.6" y="228.6" fill="#4CAF50" width="239.7" height="56.9"/>
	<g>
		<g>
			<g>
				<g>
					<path fill="#FFFFFF" d="M224.5,264.8v-10.6c0-5.9-4.1-10.8-9.6-12.1v-1.3c0-1.6-1.3-2.9-2.9-2.9c-1.6,0-2.9,1.3-2.9,2.9v1.3
						c-5.5,1.3-9.6,6.2-9.6,12.1v10.6l-3.8,3.8v1.9h32.6v-1.9L224.5,264.8z M212.1,276.3c2.1,0,3.8-1.7,3.8-3.8h-7.7
						C208.2,274.6,210,276.3,212.1,276.3z"/>
				</g>
			</g>
		</g>
	</g>
	<g>
		<circle fill="#1B5E20" cx="232.8" cy="240.5" r="15.5"/>
		<text transform="matrix(1 0 0 1 227.6615 246.8527)" fill="#FFFFFF" font-family="'Roboto-Bold'" font-size="17.8511">1</text>
	</g>
	<g>
		<rect x="245.2" y="249.8" fill="#FAFAFA" width="120" height="14.4"/>
	</g>
	<path fill="#388E3C" d="M788.7,351.8c-0.5-0.1-1-0.3-1.5-0.4l0,0l0,0c-6.9-1.7-14-2.6-21.4-2.6c-48.6,0-88.1,39.5-88.1,88.1
		c0,1.7,0.1,3.3,0.2,5c-35.9,1-64.8,30.5-64.8,66.7c0,23.3,11.9,43.7,29.9,55.7c0.1,0.1,0.3,0.2,0.4,0.3c0.6,0.4,1.2,0.8,1.9,1.2
		c0.1,0,0.2,0.1,0.2,0.1c0.6,0.3,1.2,0.7,1.7,1c0.1,0.1,0.3,0.2,0.4,0.2c0.6,0.4,1.3,0.7,1.9,1c0.1,0.1,0.3,0.1,0.4,0.2
		c0.6,0.3,1.2,0.6,1.8,0.9c0.1,0.1,0.2,0.1,0.3,0.2c0.7,0.3,1.3,0.6,2,0.9c0.2,0.1,0.3,0.1,0.5,0.2c0.7,0.3,1.3,0.5,2,0.8
		c0.1,0,0.1,0,0.2,0.1c0.7,0.3,1.4,0.5,2.1,0.7c0.2,0.1,0.3,0.1,0.5,0.2c0.7,0.2,1.4,0.5,2.2,0.7c0.1,0,0.1,0,0.2,0
		c0.7,0.2,1.4,0.4,2.1,0.5c0.2,0,0.3,0.1,0.5,0.1c0.7,0.2,1.5,0.3,2.2,0.5c0.1,0,0.3,0,0.4,0.1c0.7,0.1,1.3,0.3,2,0.4
		c0.1,0,0.3,0.1,0.4,0.1c0.7,0.1,1.5,0.2,2.3,0.3c0.2,0,0.3,0,0.5,0.1c0.7,0.1,1.4,0.2,2.1,0.2c0.1,0,0.2,0,0.3,0
		c0.8,0.1,1.5,0.1,2.3,0.1c0.2,0,0.4,0,0.5,0c0.8,0,1.6,0,2.4,0H800V355.6C796.4,354.1,792.7,352.8,788.7,351.8z"/>
	<path fill="#DEDEDE" d="M1028.4,525.1c0,20.2-12.1,37.6-29.4,45.4c-1,0.5-2.1,1-3.2,1.4c-0.8,0.3-1.5,0.6-2.3,0.8
		c-1.2,0.4-2.3,0.8-3.5,1.1c-1.2,0.3-2.4,0.6-3.6,0.8c-0.8,0.1-1.6,0.3-2.5,0.4c-2.1,0.3-4.2,0.4-6.4,0.4H800V355.6
		c3.9,1.6,7.6,3.5,11,5.6c6.3,6.4,11.7,13.7,15.8,21.8c2.8,5.4,5,10.7,6.4,15.8c3-1.8,6.2-3.4,9.5-4.8c0.5,0.8,0.9,1.7,1.4,2.5
		c2.9,5.4,5,10.7,6.4,15.8c12.8-7.4,27.7-11.7,43.6-11.7c3.6,0,7.2,0.2,10.7,0.7c3.5,0.4,7,1.1,10.3,1.9c8.5,2.1,16.5,5.5,23.8,9.9
		c2.8,2.8,5.3,5.9,7.7,9.1c8.5,11.4,14.2,24.8,16.3,39.5c0.9,0.1,1.8,0.1,2.6,0.2c4.3,0.4,8.5,1.3,12.4,2.7c1,3.5,1.7,7.1,2.2,10.7
		c0.9,0,1.8,0.1,2.6,0.2c6.1,0.5,11.9,2.1,17.1,4.6C1016.8,488.2,1028.4,505.3,1028.4,525.1z"/>
	<path fill="#FAFAFA" d="M1011.2,511.5c0,20.2-12.1,37.6-29.4,45.4c-1,0.5-2.1,1-3.2,1.4c-0.8,0.3-1.5,0.6-2.3,0.8
		c-1.2,0.4-2.4,0.8-3.5,1.1c-1.2,0.3-2.4,0.6-3.6,0.8c-0.8,0.1-1.7,0.3-2.5,0.4c-2.1,0.3-4.2,0.4-6.4,0.4H662.5
		c-0.8,0-1.6,0-2.4-0.1c-0.2,0-0.4,0-0.5,0c-0.8,0-1.5-0.1-2.3-0.1c-0.1,0-0.2,0-0.3,0c-0.7-0.1-1.4-0.1-2.1-0.2
		c-0.2,0-0.3,0-0.5-0.1c-0.8-0.1-1.5-0.2-2.3-0.3c-0.1,0-0.3-0.1-0.4-0.1c-0.7-0.1-1.3-0.2-2-0.4c-0.1,0-0.2,0-0.4-0.1
		c-0.8-0.1-1.5-0.3-2.2-0.5c-0.2,0-0.3-0.1-0.5-0.1c-0.7-0.2-1.4-0.3-2.1-0.5c0,0-0.1,0-0.2,0c-0.7-0.2-1.5-0.4-2.2-0.7
		c-0.2,0-0.3-0.1-0.5-0.2c-0.7-0.2-1.4-0.5-2.1-0.7c-0.1,0-0.1,0-0.2-0.1c-0.7-0.2-1.3-0.5-2-0.8c-0.2-0.1-0.3-0.1-0.5-0.2
		c-0.7-0.3-1.4-0.6-2-0.9c-0.1-0.1-0.2-0.1-0.3-0.2c-0.6-0.3-1.2-0.6-1.8-0.9c-0.1-0.1-0.2-0.1-0.4-0.2c-0.7-0.3-1.3-0.7-1.9-1
		c-0.1-0.1-0.3-0.2-0.4-0.2c-0.6-0.3-1.2-0.7-1.8-1c-0.1-0.1-0.2-0.1-0.2-0.1c-0.6-0.4-1.2-0.8-1.9-1.2c-0.1-0.1-0.3-0.2-0.4-0.3
		c-18-11.9-29.9-32.4-29.9-55.7c0-36.2,28.8-65.7,64.8-66.7c-0.1-1.7-0.2-3.3-0.2-5c0-48.7,39.4-88.1,88.1-88.1
		c3.7,0,7.3,0.2,10.9,0.7c3.6,0.4,7.1,1.1,10.5,2c0.5,0.1,1,0.3,1.5,0.4c9.8,2.5,18.5,6.7,26.1,11.9c0.2,0.1,0.3,0.2,0.5,0.4
		c0.3,0.2,0.6,0.4,0.9,0.6c4.3,3,8.3,6.4,12,10.2c6.3,6.4,11.7,13.7,15.8,21.8c2.8,5.4,5,10.7,6.4,15.8c3-1.8,6.2-3.4,9.5-4.8
		c10.5-4.5,22-7,34.2-7c3.6,0,7.2,0.2,10.7,0.7c3.5,0.4,7,1.1,10.3,1.9c11.2,2.8,21.5,7.8,30.6,14.4c0.1,0.1,0.2,0.2,0.3,0.2
		c0.4,0.3,0.8,0.6,1.2,0.9c3.2,2.5,6.3,5.1,9.1,8c2.8,2.8,5.3,5.9,7.7,9.1c8.5,11.4,14.2,24.8,16.3,39.5c0.9,0.1,1.8,0.1,2.6,0.2
		c4.3,0.4,8.5,1.3,12.4,2.7c8.7,3.1,16.3,8.5,22,15.6C1007,488.8,1011.2,499.7,1011.2,511.5z"/>
</g>
</svg>
